<?xml version="1.0" encoding="UTF-8" standalone="no"?>
<svg
   xmlns:dc="http://purl.org/dc/elements/1.1/"
   xmlns:cc="http://creativecommons.org/ns#"
   xmlns:rdf="http://www.w3.org/1999/02/22-rdf-syntax-ns#"
   xmlns:svg="http://www.w3.org/2000/svg"
   xmlns="http://www.w3.org/2000/svg"
   xmlns:sodipodi="http://sodipodi.sourceforge.net/DTD/sodipodi-0.dtd"
   xmlns:inkscape="http://www.inkscape.org/namespaces/inkscape"
   width="999.9989"
   height="669.4939"
   viewBox="0 0 10.416655 6.9738952"
   version="1.1"
   id="svg8"
   inkscape:version="1.0.2 (e86c870879, 2021-01-15)"
   sodipodi:docname="re-logo-white.svg"
   inkscape:export-filename="/home/felicianotech/Projects/revidian-auto/business-cards/front.png"
   inkscape:export-xdpi="231.21001"
   inkscape:export-ydpi="231.21001">
  <defs
     id="defs2" />
  <sodipodi:namedview
     id="base"
     pagecolor="#ffffff"
     bordercolor="#666666"
     borderopacity="1.0"
     inkscape:pageopacity="0.0"
     inkscape:pageshadow="2"
     inkscape:zoom="0.12612969"
     inkscape:cx="337.93683"
     inkscape:cy="1333.9239"
     inkscape:document-units="px"
     inkscape:current-layer="layer1"
     inkscape:document-rotation="0"
     showgrid="false"
     units="px"
     inkscape:pagecheckerboard="true"
     inkscape:window-width="1656"
     inkscape:window-height="1016"
     inkscape:window-x="0"
     inkscape:window-y="0"
     inkscape:window-maximized="1"
     showguides="true"
     inkscape:guide-bbox="true"
     fit-margin-top="0"
     fit-margin-left="0"
     fit-margin-right="0"
     fit-margin-bottom="0" />
  <metadata
     id="metadata5">
    <rdf:RDF>
      <cc:Work
         rdf:about="">
        <dc:format>image/svg+xml</dc:format>
        <dc:type
           rdf:resource="http://purl.org/dc/dcmitype/StillImage" />
        <dc:title></dc:title>
      </cc:Work>
    </rdf:RDF>
  </metadata>
  <g
     inkscape:label="Layer 1"
     inkscape:groupmode="layer"
     id="layer1"
     transform="translate(-1.5989264,-1.8737489)">
    <g
       transform="matrix(0.00199524,0,0,0.00199524,5.4476935,4.5226509)"
       id="layer1-2"
       inkscape:label="Layer 1"
       style="fill:#ffffff;fill-opacity:1">
      <path
         inkscape:connector-curvature="0"
         id="path820"
         d="M -26.825429,1872.2754 C -213.27863,1708.7061 -449.68083,1501.3307 -552.16793,1411.4431 c -102.4839,-89.8909 -186.31785,-166.1618 -186.29143,-169.4909 0.0297,-3.6329 18.92406,-15.6875 47.39602,-30.2521 195.51231,-99.9771 385.79001,-219.49604 519.53321,-326.33934 54.6453,-43.6575 144.618901,-134.8034 170.68320143,-172.9125 41.51399957,-60.699 51.68609957,-91.78 63.77049957,-194.8452 14.4985,-123.723 -3.3027,-210.6284 -51.8051,-254.3321 -26.0907,-23.4487 -52.492,-32.2337 -95.8885,-31.8704 -18.858001,0.2609 -41.616401,2.3119 -50.559901,4.954 -17.2398,4.9539 20.6414,-35.5099 -661.66853,707.0135 -92.79726,100.98784 -207.14744,225.37804 -254.11744,276.42684 -149.008,161.9542 -826.5324,899.4181 -848.3001,923.3489 -18.4617,20.3112 -29.5585,28.0063 -29.5585,20.5093 0,-1.321 27.9733,-71.7166 62.172,-156.3728 34.1954,-84.6563 105.2052,-261.0629 157.7963,-392.0155 52.5944,-130.9492 127.0455,-316.1771 165.4485,-411.6132 38.403,-95.4393 181.8493,-452.27524 318.7697,-792.96784 136.9204,-340.692603 278.54705,-692.9873 314.72735,-782.8749 36.17699,-89.891 126.69544,-315.0675 201.14661,-500.3978 153.62841,-382.40476 178.46741,-443.47036 181.71061,-446.71356 5.6805,-5.7136 166.8753,-9.8419 301.1866,-7.7612 638.3023,9.9079 1036.3121,135.3483 1150.5929,362.63856 22.8212,45.3847 30.8466,81.4692 37.7887,170.0523 10.3372,131.6296 7.0346,222.3264 -12.3518,340.2963 -58.5622,356.244697 -257.6744,736.0503 -586.57,1118.8613 -161.5019,187.979 -357.9983986,379.58104 -546.0765,532.47954 -28.3035,22.9863 -51.4517,44.4732 -51.4517,47.7065 0,3.3026 122.2964,207.7684 271.766801,454.5276 149.470299,246.7592 273.867199,452.5823 276.439899,457.3843 2.6421,4.7889 3.3026,9.6437 1.3211,10.7666 -1.9816,0.9908 -155.861,-131.7815 -342.314199,-295.3508 z"
         style="fill:#ffffff;fill-opacity:1;stroke:none;stroke-width:4.03545" />
      <g
         transform="matrix(1.0904453,0,0,1.0904453,-57.006593,-184.62258)"
         id="g824"
         style="fill:#ffffff;fill-opacity:1">
        <path
           inkscape:connector-curvature="0"
           style="fill:#ffffff;fill-opacity:1;stroke:none;stroke-width:4.03545"
           d="m 1514.9375,2153.775 c -167.4135,-9.5446 -360.3234,-38.8852 -476.6618,-72.5026 C 876.35437,2034.484 784.29037,1975.2415 739.38777,1888.9306 505.97117,1440.2783 648.09987,1011.759 1156.13,632.44206 c 258.8139,-193.2401 622.2715,-376.0142 1045.183,-525.6001 127.4617,-45.084203 329.3381,-107.80440286 346.9775,-107.80440286 15.8856,0 0.9908,10.10599996 -38.4129,26.02469986 -120.3148,48.6048 -351.8224,161.624003 -488.1417,238.307803 -571.1963,321.316 -893.7046,647.9658 -956.3456,968.62804 -15.2581,78.0741 -11.5592,178.9694 9.0162,245.6957 16.1829,52.5118 70.2271,118.2738 130.1401,158.371 158.1794,105.869 433.7474,172.3378 833.3226,201.0079 204.3799,14.6636 517.0431,17.3718 713.6419,6.2089 60.6759,-3.4677 75.617,-1.9816 64.3584,6.7374 -2.9724,2.3118 -32.4649,15.126 -65.7455,28.7329 -403.0858,164.7153 -763.4092,257.4399 -1069.3945,275.1915 -74.9003,4.3264 -87.4635,4.3264 -165.8019,-0.1321 z"
           id="path818" />
        <path
           inkscape:connector-curvature="0"
           style="fill:#ffffff;fill-opacity:1;stroke:none;stroke-width:4.03545"
           d="m 1059.9344,161.46416 c -2.3119,-3.8641 42.1283,-151.270403 73.3679,-243.136303 134.1957,-394.591497 280.8952,-677.507897 425.8905,-821.340697 88.3519,-87.6451 154.9626,-117.22346 315.2458,-139.99176 49.0705,-6.9685 296.0278,-6.9025 371.265,0.175 229.6648,21.3681 461.5193,58.67786 710.237,114.26436 102.3716,22.8872 120.0076,28.1384 114.0596,34.1029 -1.3211,1.3211 -52.9676,15.9848 -114.74,32.564 -654.8915,175.7031 -970.2496,268.5169 -1060.6425,312.1644 -89.0752,43.0069 -219.7206,143.529 -412.8485,317.6502 -97.6719,88.0613 -136.2367,124.5223 -287.9529,272.245597 -70.27,68.423903 -128.7265,124.406703 -129.9023,124.406703 -1.321,0 -2.9723,-1.321 -3.9631,-2.9723 z"
           id="path4012" />
      </g>
    </g>
  </g>
</svg>
